<?xml version="1.0" encoding="UTF-8" standalone="no"?>
<!DOCTYPE svg PUBLIC "-//W3C//DTD SVG 1.1//EN"
 "http://www.w3.org/Graphics/SVG/1.1/DTD/svg11.dtd">
<!-- Generated by graphviz version 2.43.0 (0)
 -->
<!-- Title: dependency&#45;cruiser output Pages: 1 -->
<svg width="173pt" height="110pt"
 viewBox="0.00 0.00 173.00 110.00" xmlns="http://www.w3.org/2000/svg" xmlns:xlink="http://www.w3.org/1999/xlink">
<g id="graph0" class="graph" transform="scale(1 1) rotate(0) translate(4 106)">
<title>dependency&#45;cruiser output</title>
<polygon fill="white" stroke="transparent" points="-4,4 -4,-106 169,-106 169,4 -4,4"/>
<g id="clust1" class="cluster">
<title>cluster_src</title>
<path fill="#ffffff" stroke="black" stroke-width="2" d="M20,-8C20,-8 145,-8 145,-8 151,-8 157,-14 157,-20 157,-20 157,-82 157,-82 157,-88 151,-94 145,-94 145,-94 20,-94 20,-94 14,-94 8,-88 8,-82 8,-82 8,-20 8,-20 8,-14 14,-8 20,-8"/>
<text text-anchor="middle" x="82.5" y="-82.8" font-family="Helvetica,sans-Serif" font-weight="bold" font-size="9.00">src</text>
</g>
<g id="clust2" class="cluster">
<title>cluster_src/scripts</title>
<path fill="#ffffff" stroke="black" stroke-width="2" d="M28,-16C28,-16 137,-16 137,-16 143,-16 149,-22 149,-28 149,-28 149,-56 149,-56 149,-62 143,-68 137,-68 137,-68 28,-68 28,-68 22,-68 16,-62 16,-56 16,-56 16,-28 16,-28 16,-22 22,-16 28,-16"/>
<text text-anchor="middle" x="82.5" y="-56.8" font-family="Helvetica,sans-Serif" font-weight="bold" font-size="9.00">scripts</text>
</g>
<!-- src/scripts/nodeSyncWorkflows.js -->
<g id="node1" class="node">
<title>src/scripts/nodeSyncWorkflows.js</title>
<g id="a_node1"><a xlink:href="src/scripts/nodeSyncWorkflows.js" xlink:title="no&#45;orphans">
<path fill="#ccffcc" stroke="orange" d="M135,-42C135,-42 30,-42 30,-42 27,-42 24,-39 24,-36 24,-36 24,-30 24,-30 24,-27 27,-24 30,-24 30,-24 135,-24 135,-24 138,-24 141,-27 141,-30 141,-30 141,-36 141,-36 141,-39 138,-42 135,-42"/>
<text text-anchor="start" x="32" y="-30.8" font-family="Helvetica,sans-Serif" font-size="9.00" fill="orange">nodeSyncWorkflows.js</text>
</a>
</g>
</g>
</g>
</svg>
